# Blender v2.80 (sub 41) OBJ File: 'hojasTiradas.blend'
# www.blender.org
mtllib hojasTiradas.mtl
o Plane
v -0.399817 0.000000 0.329563
v 0.306244 0.000000 0.219206
v -0.546165 0.000000 -0.606771
v 0.159895 0.000000 -0.717128
vt 0.000000 0.000000
vt 1.000000 0.000000
vt 1.000000 1.000000
vt 0.000000 1.000000
vn 0.0000 1.0000 0.0000
usemtl None
s off
f 1/1/1 2/2/1 4/3/1 3/4/1
o Plane.001
v 0.587845 0.000000 -1.002815
v 0.576759 0.000000 -0.288268
v 1.535434 0.000000 -0.988113
v 1.524348 0.000000 -0.273566
vt 0.000000 0.000000
vt 1.000000 0.000000
vt 1.000000 1.000000
vt 0.000000 1.000000
vn 0.0000 1.0000 0.0000
usemtl None
s off
f 5/5/2 6/6/2 8/7/2 7/8/2
o Plane.002
v -0.340904 0.000000 -2.530724
v -1.053900 0.000000 -2.482397
v -0.276815 0.000000 -1.585191
v -0.989811 0.000000 -1.536864
vt 0.000000 0.000000
vt 1.000000 0.000000
vt 1.000000 1.000000
vt 0.000000 1.000000
vn 0.0000 1.0000 0.0000
usemtl None
s off
f 9/9/3 10/10/3 12/11/3 11/12/3
o Plane.003
v -1.397350 0.009786 0.588094
v -0.808562 0.009786 0.993098
v -0.860257 0.009786 -0.192721
v -0.271469 0.009786 0.212284
vt 0.000000 0.000000
vt 1.000000 0.000000
vt 1.000000 1.000000
vt 0.000000 1.000000
vn 0.0000 1.0000 0.0000
usemtl None
s off
f 13/13/4 14/14/4 16/15/4 15/16/4
o Plane.004
v 0.340936 0.000000 1.653787
v 0.928767 0.000000 2.060180
v 0.879869 0.000000 0.874242
v 1.467700 0.000000 1.280634
vt 0.000000 0.000000
vt 1.000000 0.000000
vt 1.000000 1.000000
vt 0.000000 1.000000
vn 0.0000 1.0000 0.0000
usemtl None
s off
f 17/17/5 18/18/5 20/19/5 19/20/5
o Plane.005
v 1.688663 0.000000 0.563590
v 1.571952 0.000000 1.268628
v 2.623641 0.000000 0.718364
v 2.506931 0.000000 1.423402
vt 0.000000 0.000000
vt 1.000000 0.000000
vt 1.000000 1.000000
vt 0.000000 1.000000
vn 0.0000 1.0000 0.0000
usemtl None
s off
f 21/21/6 22/22/6 24/23/6 23/24/6
o Plane.006
v -0.833458 0.006100 -2.882061
v -0.477041 0.006100 -2.262652
v -0.012037 0.006100 -3.354720
v 0.344381 0.006100 -2.735312
vt 0.000000 0.000000
vt 1.000000 0.000000
vt 1.000000 1.000000
vt 0.000000 1.000000
vn 0.0000 1.0000 0.0000
usemtl None
s off
f 25/25/7 26/26/7 28/27/7 27/28/7
