# Blender v2.80 (sub 41) OBJ File: 'techoPlantaBajaArreglado.blend'
# www.blender.org
mtllib techoPlantaBajaArreglado2.mtl
o Cube
v 27.995628 -2.029861 220.200333
v 27.995628 5.826622 220.200333
v 27.995628 -2.029861 -219.026352
v 27.995628 5.826622 -219.026352
v -225.123993 5.826622 108.204575
v -225.123993 -2.029861 108.204575
v 27.995628 5.826622 108.204575
v 27.995628 -2.029861 108.204575
v -225.123993 -2.029861 -219.026352
v -225.123993 -2.029861 220.200333
v -225.123993 5.826622 220.200333
v -225.123993 5.826622 -219.026352
v 27.995628 -2.029861 146.391800
v 27.995628 5.826622 146.391800
v -225.123993 5.826622 146.391800
v -225.123993 -2.029861 146.391800
v 116.042992 -2.029861 146.391800
v 116.042992 -2.029861 220.200333
v 116.042992 5.826622 220.200333
v 116.042992 5.826622 108.204575
v 116.042992 5.826622 -219.026352
v 116.042992 -2.029861 -219.026352
v 116.042992 -2.029861 108.204575
v 116.042992 5.826622 146.391800
v 27.995628 5.826622 -15.026766
v 27.995628 -2.029861 -15.026776
v -225.123993 -2.029861 -15.026776
v -225.123993 5.826622 -15.026766
v 116.042992 5.826622 -15.026766
v 116.042992 -2.029861 -15.026776
v 230.362213 5.826622 -15.026766
v 230.362213 5.826622 -219.026352
v 230.362213 -2.029861 -219.026352
v 230.362213 -2.029861 -15.026776
vt 0.625000 0.250000
vt 0.375000 0.250000
vt 0.375000 0.250000
vt 0.625000 0.250000
vt 0.125000 0.562500
vt 0.125000 0.625000
vt 0.125000 0.625000
vt 0.125000 0.562500
vt 0.375000 0.062500
vt 0.625000 0.062500
vt 0.625000 0.125000
vt 0.375000 0.125000
vt 0.625000 1.000000
vt 0.375000 1.000000
vt 0.375000 1.000000
vt 0.625000 1.000000
vt 0.125000 0.687500
vt 0.125000 0.687500
vt 0.875000 0.687500
vt 0.875000 0.625000
vt 0.875000 0.625000
vt 0.875000 0.687500
vt 0.375000 0.187500
vt 0.625000 0.187500
vt 0.625000 1.000000
vt 0.375000 1.000000
vt 0.875000 0.562500
vt 0.875000 0.500000
vt 0.875000 0.500000
vt 0.875000 0.562500
vt 0.125000 0.750000
vt 0.125000 0.750000
vt 0.125000 0.500000
vt 0.125000 0.500000
vt 0.125000 0.562500
vt 0.875000 0.750000
vt 0.875000 0.750000
vt 0.750000 0.750000
vt 0.687500 0.875000
vt 0.375000 0.000000
vt 0.625000 0.000000
vt 0.125000 0.687500
vt 0.687500 0.875000
vt 0.125000 0.750000
vt 0.812500 0.625000
vt 0.750000 0.750000
vt 0.125000 0.625000
vt 0.875000 0.750000
vt 0.875000 0.687500
vt 0.625000 0.250000
vt 0.375000 0.250000
vt 0.875000 0.625000
vt 0.875000 0.562500
vt 0.875000 0.500000
vt 0.625000 0.250000
vt 0.375000 0.250000
vt 0.125000 0.500000
vt 0.125000 0.500000
vt 0.875000 0.500000
vt 0.812500 0.625000
vt 0.125000 0.562500
vt 0.875000 0.562500
vn 0.0000 0.0000 -1.0000
vn 0.0000 -1.0000 0.0000
vn -1.0000 0.0000 0.0000
vn 0.0000 0.0000 1.0000
vn 0.0000 1.0000 0.0000
vn 1.0000 0.0000 0.0000
usemtl None
s off
f 4/1/1 3/2/1 9/3/1 12/4/1
f 26/5/2 8/6/2 6/7/2 27/8/2
f 16/9/3 15/10/3 5/11/3 6/12/3
f 2/13/4 1/14/4 18/15/4 19/16/4
f 8/6/2 13/17/2 16/18/2 6/7/2
f 14/19/5 7/20/5 5/21/5 15/22/5
f 27/23/3 28/24/3 12/4/3 9/3/3
f 1/14/4 2/13/4 11/25/4 10/26/4
f 25/27/5 4/28/5 12/29/5 28/30/5
f 13/17/2 1/31/2 10/32/2 16/18/2
f 26/5/2 3/33/2 22/34/2 30/35/2
f 2/36/5 14/19/5 15/22/5 11/37/5
f 8/6/6 7/38/6 14/39/6 13/17/6
f 10/40/3 11/41/3 15/10/3 16/9/3
f 17/42/6 24/43/6 19/16/6 18/44/6
f 30/35/6 29/45/6 20/46/6 23/47/6
f 14/19/5 2/36/5 19/48/5 24/49/5
f 3/2/1 4/1/1 21/50/1 22/51/1
f 13/17/1 14/39/1 24/43/1 17/42/1
f 25/27/5 7/20/5 20/52/5 29/53/5
f 1/31/2 13/17/2 17/42/2 18/44/2
f 7/38/4 8/6/4 23/47/4 20/46/4
f 4/28/5 25/27/5 29/53/5 21/54/5
f 22/51/1 21/50/1 32/55/1 33/56/1
f 8/6/2 26/5/2 30/35/2 23/47/2
f 7/20/5 25/27/5 28/30/5 5/21/5
f 6/12/3 5/11/3 28/24/3 27/23/3
f 3/33/2 26/5/2 27/8/2 9/57/2
f 33/58/6 32/59/6 31/60/6 34/61/6
f 21/54/5 29/53/5 31/62/5 32/59/5
f 29/45/4 30/35/4 34/61/4 31/60/4
f 30/35/2 22/34/2 33/58/2 34/61/2
